# xmcd
#
# Track frame offsets: 
#        150
#        10290
#        20806
#        32142
#        42785
#        56903
#        69674
#        84738
#        98041
#        112198
#        123192
#        136780
#        149681
#        159974
#        173081
#        183581
#        195054
#        206821
#        219262
#        228921
#        239572
#        251794
#        267040
#        279240
#        290125
#        303118
#        313540
#        330205
#        343794
#
# Disc length: 4726 seconds
#
# Revision: 0
# Processed by: cddbd v1.5.2PL0 Copyright (c) Steve Scherf et al.
# Submitted via: ExactAudioCopy v1.0b1
#
DISCID=a612741d
DTITLE=Va  - 101 Pirate Radio Hits - Disc 2  FLAC
DYEAR=1900
DGENRE=
TTITLE0=Phil Upchurch Combo - You Can't Sit Down
TTITLE1=Bob Dylan - Subterranean Homesick Blues
TTITLE2=Manfred Mann - If You Gotta Go, Go Now
TTITLE3=The Byrds - Mr Tambourine Man
TTITLE4=Simon and Garfunkel - The Sound of Silence
TTITLE5=Bob Lind - Elusive Butterfly
TTITLE6=Donovan - Sunshine Superman
TTITLE7=The Beach Boys - Sloop John B
TTITLE8=The Animals - It's my Life
TTITLE9=The Hollies - I'm Alive
TTITLE10=Love Affair - Everlasting Love
TTITLE11=The Easybeats - Friday On My Mind
TTITLE12=The Move - Night Of Fear
TTITLE13=Jeff Beck - Hi Ho Silver Lining
TTITLE14=The Lovin' Spoonful - Daydream
TTITLE15=Dave Dee, Dozy Beaky Mick and Tich - Bend It
TTITLE16=The Troggs - Wild Thing
TTITLE17=The Kingsmen - Louie Louie
TTITLE18=The Rockin' Vickers - Dandy
TTITLE19=The Turtles - She'd Rather Be With Me
TTITLE20=Jay and The Americans - Livin' Above Your Head
TTITLE21=Mitch Ryder and the Detroit Wheels - Jenny Takes a Ride
TTITLE22=P J Proby - Hold Me
TTITLE23=The Yardbirds - Over Under Sideways Down
TTITLE24=The Creation - Painter Man
TTITLE25=Love - 7 And 7 Is
TTITLE26=Tim Rose - Morning Dew
TTITLE27=Jefferson Airplane - Somebody To Love
TTITLE28=The Bar-Kays - Soul Finger
EXTD=
EXTT0=
EXTT1=
EXTT2=
EXTT3=
EXTT4=
EXTT5=
EXTT6=
EXTT7=
EXTT8=
EXTT9=
EXTT10=
EXTT11=
EXTT12=
EXTT13=
EXTT14=
EXTT15=
EXTT16=
EXTT17=
EXTT18=
EXTT19=
EXTT20=
EXTT21=
EXTT22=
EXTT23=
EXTT24=
EXTT25=
EXTT26=
EXTT27=
EXTT28=
PLAYORDER=
